<?xml version="1.0" encoding="utf-8"?>
<!-- Generator: Adobe Illustrator 16.0.0, SVG Export Plug-In . SVG Version: 6.00 Build 0)  -->
<!DOCTYPE svg PUBLIC "-//W3C//DTD SVG 1.1//EN" "http://www.w3.org/Graphics/SVG/1.1/DTD/svg11.dtd">
<svg version="1.1" id="Layer_1" xmlns="http://www.w3.org/2000/svg" xmlns:xlink="http://www.w3.org/1999/xlink" x="0px" y="0px"
	 width="250px" height="250px" viewBox="0 0 250 250" enable-background="new 0 0 250 250" xml:space="preserve">
<line fill="none" stroke="#60FF54" stroke-miterlimit="10" x1="124.5" y1="125" x2="124.5" y2="61"/>
<line fill="none" stroke="#322AFF" stroke-miterlimit="10" x1="124" y1="124.5" x2="95.479" y2="150.028"/>
<g id="XMLID_3_">
	<g>
		<polygon fill="#0000FF" points="95.48,150.03 97.45,152.28 90.69,153.97 93.79,147.77 		"/>
	</g>
	<g>
		<line fill="none" stroke="#322AFF" stroke-miterlimit="10" x1="95.48" y1="150.03" x2="93.79" y2="147.77"/>
		<line fill="none" stroke="#322AFF" stroke-miterlimit="10" x1="95.48" y1="150.03" x2="97.45" y2="152.28"/>
		<line fill="none" stroke="#322AFF" stroke-miterlimit="10" x1="97.45" y1="152.28" x2="90.69" y2="153.97"/>
		<line fill="none" stroke="#322AFF" stroke-miterlimit="10" x1="90.69" y1="153.97" x2="93.79" y2="147.77"/>
	</g>
</g>
<g id="XMLID_1_">
	<g>
		<polygon fill="#56FF54" points="124.94,54.29 127.6,60.69 124.79,60.49 121.79,60.51 		"/>
	</g>
	<g>
		<line fill="none" stroke="#60FF54" stroke-miterlimit="10" x1="124.79" y1="60.49" x2="127.6" y2="60.69"/>
		<line fill="none" stroke="#60FF54" stroke-miterlimit="10" x1="124.79" y1="60.49" x2="121.79" y2="60.51"/>
		<line fill="none" stroke="#60FF54" stroke-miterlimit="10" x1="121.79" y1="60.51" x2="124.94" y2="54.29"/>
		<line fill="none" stroke="#60FF54" stroke-miterlimit="10" x1="124.94" y1="54.29" x2="127.6" y2="60.69"/>
	</g>
</g>
<line fill="none" stroke="#FF503F" stroke-miterlimit="10" x1="124.34" y1="124.467" x2="188.34" y2="124.435"/>
<g id="XMLID_2_">
	<g>
		<polygon fill="#FF0000" points="195.05,124.87 188.65,127.53 188.85,124.72 188.83,121.73 		"/>
	</g>
	<g>
		<line fill="none" stroke="#FF503F" stroke-miterlimit="10" x1="188.85" y1="124.72" x2="188.65" y2="127.53"/>
		<line fill="none" stroke="#FF503F" stroke-miterlimit="10" x1="188.85" y1="124.72" x2="188.83" y2="121.73"/>
		<line fill="none" stroke="#FF503F" stroke-miterlimit="10" x1="188.83" y1="121.73" x2="195.05" y2="124.87"/>
		<line fill="none" stroke="#FF503F" stroke-miterlimit="10" x1="195.05" y1="124.87" x2="188.65" y2="127.53"/>
	</g>
</g>
</svg>
