<?xml version="1.0" encoding="utf-8"?>
<!-- Generator: Adobe Illustrator 16.0.0, SVG Export Plug-In . SVG Version: 6.00 Build 0)  -->
<!DOCTYPE svg PUBLIC "-//W3C//DTD SVG 1.1//EN" "http://www.w3.org/Graphics/SVG/1.1/DTD/svg11.dtd">
<svg version="1.1" id="Layer_1" xmlns="http://www.w3.org/2000/svg" xmlns:xlink="http://www.w3.org/1999/xlink" x="0px" y="0px"
	 width="250px" height="250px" viewBox="0 0 250 250" enable-background="new 0 0 250 250" xml:space="preserve">
<g>
	<g id="XMLID_1_">
		<g>
			<path fill="none" stroke="#FFFFFF" stroke-miterlimit="10" d="M94.496,79.496c0,6.63-5.37,12-12,12h-4c-6.63,0-12-5.37-12-12v-16
				v-2c0-6.63,5.37-12,12-12h4c6.63,0,12,5.37,12,12V79.496z"/>
			<polyline fill="none" stroke="#FFFFFF" stroke-miterlimit="10" points="65.996,63.496 66.496,63.496 93.996,63.496 			"/>
			<line fill="none" stroke="#FFFFFF" stroke-miterlimit="10" x1="80.496" y1="62.996" x2="80.496" y2="49.996"/>
		</g>
	</g>
</g>
<g id="XMLID_2_">
	<g>
		<path fill="#FFFFFF" stroke="#FFFFFF" stroke-miterlimit="10" d="M78.796,50.786l0.01,0.91c0,2.07,0.08,1.45,0,2.87l0.09,1.54
			c-0.06,2.15,0.1,2.03,0.1,4.12v1.98c-6,0-6.38-0.05-7.41-0.08l-3.43-0.01C68.156,55.856,72.856,50.786,78.796,50.786z"/>
	</g>
	<g>
		<path fill="#FFFFFF" stroke="#FFFFFF" stroke-miterlimit="10" d="M78.896,56.106c-0.06,2.15,0.1,2.03,0.1,4.12v1.98
			c-6,0-6.38-0.05-7.41-0.08l-3.43-0.01c0-6.26,4.7-11.33,10.64-11.33l0.01,0.91c0,2.07,0.08,1.45,0,2.87L78.896,56.106z"/>
	</g>
</g>
<g>
	<g id="XMLID_6_">
		<g>
			<path fill="none" stroke="#FFFFFF" stroke-miterlimit="10" d="M66.236,197.496c0,6.63,5.374,12,12.009,12h4.003
				c6.635,0,12.009-5.37,12.009-12v-16v-2c0-6.63-5.374-12-12.009-12h-4.003c-6.635,0-12.009,5.37-12.009,12V197.496z"/>
			<polyline fill="none" stroke="#FFFFFF" stroke-miterlimit="10" points="94.757,181.496 94.257,181.496 66.736,181.496 			"/>
			<line fill="none" stroke="#FFFFFF" stroke-miterlimit="10" x1="80.246" y1="180.996" x2="80.246" y2="167.996"/>
		</g>
	</g>
</g>
<g id="XMLID_5_">
	<g>
		<path fill="#FFFFFF" stroke="#FFFFFF" stroke-miterlimit="10" d="M92.596,180.116c0-6.261-4.704-11.33-10.648-11.33l-0.01,0.909
			c0,2.07-0.08,1.451,0,2.871l-0.09,1.539c0.06,2.149-0.1,2.03-0.1,4.121v1.979c6.004,0,6.385-0.051,7.416-0.08L92.596,180.116z"/>
	</g>
	<g>
		<path fill="#FFFFFF" stroke="#FFFFFF" stroke-miterlimit="10" d="M81.848,174.105c0.06,2.149-0.1,2.03-0.1,4.121v1.979
			c6.004,0,6.385-0.05,7.416-0.08l3.433-0.01c0-6.26-4.704-11.33-10.648-11.33l-0.01,0.91c0,2.07-0.08,1.449,0,2.869L81.848,174.105
			z"/>
	</g>
</g>
<line fill="none" stroke="#FFFFFF" stroke-miterlimit="10" x1="132" y1="188.5" x2="155" y2="188.5"/>
<g id="XMLID_3_">
	<g>
		<polygon fill="#FFFFFF" stroke="#FFFFFF" stroke-miterlimit="10" points="135.977,185.97 135.977,190.313 131.747,188.141 		"/>
	</g>
	<g>
		<line fill="#FFFFFF" stroke="#FFFFFF" stroke-miterlimit="10" x1="131.747" y1="188.141" x2="135.977" y2="185.97"/>
		<line fill="#FFFFFF" stroke="#FFFFFF" stroke-miterlimit="10" x1="135.977" y1="185.97" x2="135.977" y2="190.313"/>
		<line fill="#FFFFFF" stroke="#FFFFFF" stroke-miterlimit="10" x1="135.977" y1="190.313" x2="131.747" y2="188.141"/>
	</g>
</g>
<line fill="none" stroke="#FFFFFF" stroke-miterlimit="10" x1="179" y1="188.5" x2="155" y2="188.5"/>
<g id="XMLID_4_">
	<g>
		<polygon fill="#FFFFFF" stroke="#FFFFFF" stroke-miterlimit="10" points="178.622,188.141 174.258,185.97 174.258,190.313 		"/>
	</g>
	<g>
		<line fill="#FFFFFF" stroke="#FFFFFF" stroke-miterlimit="10" x1="178.622" y1="188.141" x2="174.258" y2="185.97"/>
		<line fill="#FFFFFF" stroke="#FFFFFF" stroke-miterlimit="10" x1="174.258" y1="185.97" x2="174.258" y2="190.313"/>
		<line fill="#FFFFFF" stroke="#FFFFFF" stroke-miterlimit="10" x1="174.258" y1="190.313" x2="178.622" y2="188.141"/>
	</g>
</g>
<line fill="none" stroke="#FFFFFF" stroke-miterlimit="10" x1="155.163" y1="211.971" x2="155.188" y2="188.525"/>
<g id="XMLID_8_">
	<g>
		<polygon fill="#FFFFFF" stroke="#FFFFFF" stroke-miterlimit="10" points="157.285,207.848 155.165,212.184 153.053,207.842 		"/>
	</g>
	<g>
		<line fill="#FFFFFF" stroke="#FFFFFF" stroke-miterlimit="10" x1="155.165" y1="212.184" x2="153.053" y2="207.842"/>
		<line fill="#FFFFFF" stroke="#FFFFFF" stroke-miterlimit="10" x1="153.053" y1="207.842" x2="157.285" y2="207.848"/>
		<line fill="#FFFFFF" stroke="#FFFFFF" stroke-miterlimit="10" x1="157.285" y1="207.848" x2="155.165" y2="212.184"/>
	</g>
</g>
<line fill="none" stroke="#FFFFFF" stroke-miterlimit="10" x1="155.212" y1="164.211" x2="155.188" y2="188.525"/>
<g id="XMLID_7_">
	<g>
		<polygon fill="#FFFFFF" stroke="#FFFFFF" stroke-miterlimit="10" points="157.327,168.59 155.215,164.109 153.096,168.586 		"/>
	</g>
	<g>
		<line fill="#FFFFFF" stroke="#FFFFFF" stroke-miterlimit="10" x1="155.215" y1="164.109" x2="153.096" y2="168.586"/>
		<line fill="#FFFFFF" stroke="#FFFFFF" stroke-miterlimit="10" x1="153.096" y1="168.586" x2="157.327" y2="168.59"/>
		<line fill="#FFFFFF" stroke="#FFFFFF" stroke-miterlimit="10" x1="157.327" y1="168.59" x2="155.215" y2="164.109"/>
	</g>
</g>
<path fill="none" stroke="#FFFFFF" stroke-miterlimit="10" d="M153.75,56.495c17.75-0.158,24.691,1.895,24.691,8.844
	c0,2.527-7.441,8.698-21.441,8.686c-6.27-0.005-16.75-0.764-16.75-7.581"/>
<g id="XMLID_9_">
	<g>
		<polygon fill="#FFFFFF" stroke="#FFFFFF" stroke-miterlimit="10" points="142.357,66.437 140.247,63.607 138.126,66.434 		"/>
	</g>
	<g>
		<line fill="#FFFFFF" stroke="#FFFFFF" stroke-miterlimit="10" x1="140.247" y1="63.607" x2="138.126" y2="66.434"/>
		<line fill="#FFFFFF" stroke="#FFFFFF" stroke-miterlimit="10" x1="138.126" y1="66.434" x2="142.357" y2="66.437"/>
		<line fill="#FFFFFF" stroke="#FFFFFF" stroke-miterlimit="10" x1="142.357" y1="66.437" x2="140.247" y2="63.607"/>
	</g>
</g>
<path fill="none" stroke="#FFFFFF" stroke-miterlimit="10" d="M170.975,55.767c0.817,17.732-2.209,24.774-13.201,25.128
	c-4,0.127-14-6.997-14.432-20.99c-0.191-6.267,0.674-16.781,11.458-17.126"/>
<g id="XMLID_10_">
	<g>
		<polygon fill="#FFFFFF" stroke="#FFFFFF" stroke-miterlimit="10" points="154.877,44.891 159.277,42.637 154.746,40.66 		"/>
	</g>
	<g>
		<line fill="#FFFFFF" stroke="#FFFFFF" stroke-miterlimit="10" x1="159.277" y1="42.637" x2="154.746" y2="40.66"/>
		<line fill="#FFFFFF" stroke="#FFFFFF" stroke-miterlimit="10" x1="154.746" y1="40.66" x2="154.877" y2="44.891"/>
		<line fill="#FFFFFF" stroke="#FFFFFF" stroke-miterlimit="10" x1="154.877" y1="44.891" x2="159.277" y2="42.637"/>
	</g>
</g>
<g>
	<g id="XMLID_12_">
		<g>
			<path fill="none" stroke="#FFFFFF" stroke-miterlimit="10" d="M95.998,138.496c0,6.63-5.37,12-12,12h-4c-6.63,0-12-5.37-12-12
				v-16v-2c0-6.63,5.37-12,12-12h4c6.63,0,12,5.37,12,12V138.496z"/>
			<polyline fill="none" stroke="#FFFFFF" stroke-miterlimit="10" points="67.498,122.496 67.998,122.496 95.498,122.496 			"/>
			<line fill="none" stroke="#FFFFFF" stroke-miterlimit="10" x1="81.998" y1="121.996" x2="81.998" y2="108.996"/>
		</g>
	</g>
</g>
<path fill="#FFFFFF" stroke="#FFFFFF" stroke-miterlimit="10" d="M85.5,122c0,1.933-1.567,3.5-3.5,3.5l0,0
	c-1.933,0-3.5-1.567-3.5-3.5v-3c0-1.933,1.567-3.5,3.5-3.5l0,0c1.933,0,3.5,1.567,3.5,3.5V122z"/>
<rect x="147.5" y="116.5" fill="#FFFFFF" stroke="#FFFFFF" stroke-miterlimit="10" width="20" height="19"/>
<rect x="131.5" y="104.5" fill="none" stroke="#FFFFFF" stroke-miterlimit="10" width="52" height="43"/>
<line fill="none" stroke="#FFFFFF" stroke-miterlimit="10" x1="167.792" y1="116.69" x2="175.434" y2="110.997"/>
<g id="XMLID_13_">
	<g>
		<polygon fill="#FFFFFF" stroke="#FFFFFF" stroke-miterlimit="10" points="169.936,116.761 167.725,116.746 168.342,114.624 		"/>
	</g>
	<g>
		<line fill="#FFFFFF" stroke="#FFFFFF" stroke-miterlimit="10" x1="167.725" y1="116.746" x2="168.342" y2="114.624"/>
		<line fill="#FFFFFF" stroke="#FFFFFF" stroke-miterlimit="10" x1="168.342" y1="114.624" x2="169.936" y2="116.761"/>
		<line fill="#FFFFFF" stroke="#FFFFFF" stroke-miterlimit="10" x1="169.936" y1="116.761" x2="167.725" y2="116.746"/>
	</g>
</g>
<line fill="none" stroke="#FFFFFF" stroke-miterlimit="10" x1="183.355" y1="105.091" x2="175.434" y2="110.997"/>
<g id="XMLID_11_">
	<g>
		<polygon fill="#FFFFFF" stroke="#FFFFFF" stroke-miterlimit="10" points="182.73,107.22 183.395,105.07 181.139,105.089 		"/>
	</g>
	<g>
		<line fill="#FFFFFF" stroke="#FFFFFF" stroke-miterlimit="10" x1="183.395" y1="105.07" x2="181.139" y2="105.089"/>
		<line fill="#FFFFFF" stroke="#FFFFFF" stroke-miterlimit="10" x1="181.139" y1="105.089" x2="182.73" y2="107.22"/>
		<line fill="#FFFFFF" stroke="#FFFFFF" stroke-miterlimit="10" x1="182.73" y1="107.22" x2="183.395" y2="105.07"/>
	</g>
</g>
<line fill="none" stroke="#FFFFFF" stroke-miterlimit="10" x1="131.792" y1="146.689" x2="139.434" y2="140.996"/>
<g id="XMLID_15_">
	<g>
		<polygon fill="#FFFFFF" stroke="#FFFFFF" stroke-miterlimit="10" points="132.343,144.623 133.936,146.761 131.727,146.746 		"/>
	</g>
	<g>
		<line fill="#FFFFFF" stroke="#FFFFFF" stroke-miterlimit="10" x1="131.727" y1="146.746" x2="132.343" y2="144.623"/>
		<line fill="#FFFFFF" stroke="#FFFFFF" stroke-miterlimit="10" x1="132.343" y1="144.623" x2="133.936" y2="146.761"/>
		<line fill="#FFFFFF" stroke="#FFFFFF" stroke-miterlimit="10" x1="133.936" y1="146.761" x2="131.727" y2="146.746"/>
	</g>
</g>
<line fill="none" stroke="#FFFFFF" stroke-miterlimit="10" x1="147.355" y1="135.091" x2="139.434" y2="140.996"/>
<g id="XMLID_14_">
	<g>
		<polygon fill="#FFFFFF" stroke="#FFFFFF" stroke-miterlimit="10" points="146.73,137.221 147.395,135.07 145.139,135.09 		"/>
	</g>
	<g>
		<line fill="#FFFFFF" stroke="#FFFFFF" stroke-miterlimit="10" x1="147.395" y1="135.07" x2="145.139" y2="135.09"/>
		<line fill="#FFFFFF" stroke="#FFFFFF" stroke-miterlimit="10" x1="145.139" y1="135.09" x2="146.73" y2="137.221"/>
		<line fill="#FFFFFF" stroke="#FFFFFF" stroke-miterlimit="10" x1="146.73" y1="137.221" x2="147.395" y2="135.07"/>
	</g>
</g>
<line fill="none" stroke="#FFFFFF" stroke-miterlimit="10" x1="167.293" y1="135.117" x2="174.914" y2="140.837"/>
<g id="XMLID_19_">
	<g>
		<polygon fill="#FFFFFF" stroke="#FFFFFF" stroke-miterlimit="10" points="169.434,135.063 167.822,137.191 167.215,135.068 		"/>
	</g>
	<g>
		<line fill="#FFFFFF" stroke="#FFFFFF" stroke-miterlimit="10" x1="167.215" y1="135.068" x2="169.434" y2="135.063"/>
		<line fill="#FFFFFF" stroke="#FFFFFF" stroke-miterlimit="10" x1="169.434" y1="135.063" x2="167.822" y2="137.191"/>
		<line fill="#FFFFFF" stroke="#FFFFFF" stroke-miterlimit="10" x1="167.822" y1="137.191" x2="167.215" y2="135.068"/>
	</g>
</g>
<line fill="none" stroke="#FFFFFF" stroke-miterlimit="10" x1="182.818" y1="146.77" x2="174.914" y2="140.837"/>
<g id="XMLID_18_">
	<g>
		<polygon fill="#FFFFFF" stroke="#FFFFFF" stroke-miterlimit="10" points="181.279,147.216 183.525,147.249 182.871,145.091 		"/>
	</g>
	<g>
		<line fill="#FFFFFF" stroke="#FFFFFF" stroke-miterlimit="10" x1="183.525" y1="147.249" x2="182.871" y2="145.091"/>
		<line fill="#FFFFFF" stroke="#FFFFFF" stroke-miterlimit="10" x1="182.871" y1="145.091" x2="181.279" y2="147.216"/>
		<line fill="#FFFFFF" stroke="#FFFFFF" stroke-miterlimit="10" x1="181.279" y1="147.216" x2="183.525" y2="147.249"/>
	</g>
</g>
<line fill="none" stroke="#FFFFFF" stroke-miterlimit="10" x1="132.232" y1="105.209" x2="139.962" y2="110.786"/>
<g id="XMLID_17_">
	<g>
		<polygon fill="#FFFFFF" stroke="#FFFFFF" stroke-miterlimit="10" points="133.988,105.008 132.385,107.144 131.77,105.015 		"/>
	</g>
	<g>
		<line fill="#FFFFFF" stroke="#FFFFFF" stroke-miterlimit="10" x1="131.77" y1="105.015" x2="133.988" y2="105.008"/>
		<line fill="#FFFFFF" stroke="#FFFFFF" stroke-miterlimit="10" x1="133.988" y1="105.008" x2="132.385" y2="107.144"/>
		<line fill="#FFFFFF" stroke="#FFFFFF" stroke-miterlimit="10" x1="132.385" y1="107.144" x2="131.77" y2="105.015"/>
	</g>
</g>
<line fill="none" stroke="#FFFFFF" stroke-miterlimit="10" x1="147.975" y1="116.569" x2="139.962" y2="110.786"/>
<g id="XMLID_16_">
	<g>
		<polygon fill="#FFFFFF" stroke="#FFFFFF" stroke-miterlimit="10" points="147.896,116.75 147.24,114.591 145.646,116.72 		"/>
	</g>
	<g>
		<line fill="#FFFFFF" stroke="#FFFFFF" stroke-miterlimit="10" x1="147.896" y1="116.75" x2="147.24" y2="114.591"/>
		<line fill="#FFFFFF" stroke="#FFFFFF" stroke-miterlimit="10" x1="147.24" y1="114.591" x2="145.646" y2="116.72"/>
		<line fill="#FFFFFF" stroke="#FFFFFF" stroke-miterlimit="10" x1="145.646" y1="116.72" x2="147.896" y2="116.75"/>
	</g>
</g>
</svg>
