<?xml version="1.0" encoding="utf-8"?>
<!-- Generator: Adobe Illustrator 16.0.0, SVG Export Plug-In . SVG Version: 6.00 Build 0)  -->
<!DOCTYPE svg PUBLIC "-//W3C//DTD SVG 1.1//EN" "http://www.w3.org/Graphics/SVG/1.1/DTD/svg11.dtd">
<svg version="1.1" id="Layer_1" xmlns="http://www.w3.org/2000/svg" xmlns:xlink="http://www.w3.org/1999/xlink" x="0px" y="0px"
	 width="250px" height="250px" viewBox="0 0 250 250" enable-background="new 0 0 250 250" xml:space="preserve">
<g>
	<g id="XMLID_1_">
		<g>
			<path fill="none" stroke="#FFFFFF" stroke-miterlimit="10" d="M95.363,73.656c0,6.63-5.37,12-12,12h-4c-6.63,0-12-5.37-12-12v-16
				v-2c0-6.63,5.37-12,12-12h4c6.63,0,12,5.37,12,12V73.656z"/>
			<polyline fill="none" stroke="#FFFFFF" stroke-miterlimit="10" points="66.863,57.656 67.363,57.656 94.863,57.656 			"/>
			<line fill="none" stroke="#FFFFFF" stroke-miterlimit="10" x1="81.363" y1="57.156" x2="81.363" y2="44.156"/>
		</g>
	</g>
</g>
<g id="XMLID_2_">
	<g>
		<path fill="#FFFFFF" stroke="#FFFFFF" stroke-miterlimit="10" d="M79.663,44.946l0.01,0.91c0,2.07,0.08,1.45,0,2.87l0.09,1.54
			c-0.06,2.15,0.1,2.03,0.1,4.12v1.98c-6,0-6.38-0.05-7.41-0.08l-3.43-0.01C69.024,50.016,73.723,44.946,79.663,44.946z"/>
	</g>
	<g>
		<path fill="#FFFFFF" stroke="#FFFFFF" stroke-miterlimit="10" d="M79.763,50.266c-0.06,2.15,0.1,2.03,0.1,4.12v1.98
			c-6,0-6.38-0.05-7.41-0.08l-3.43-0.01c0-6.26,4.7-11.33,10.64-11.33l0.01,0.91c0,2.07,0.08,1.45,0,2.87L79.763,50.266z"/>
	</g>
</g>
<g>
	<g id="XMLID_6_">
		<g>
			<path fill="none" stroke="#FFFFFF" stroke-miterlimit="10" d="M67.103,191.656c0,6.63,5.374,12,12.009,12h4.003
				c6.635,0,12.009-5.37,12.009-12v-16v-2c0-6.631-5.374-12-12.009-12h-4.003c-6.635,0-12.009,5.369-12.009,12V191.656z"/>
			<polyline fill="none" stroke="#FFFFFF" stroke-miterlimit="10" points="95.624,175.656 95.124,175.656 67.603,175.656 			"/>
			<line fill="none" stroke="#FFFFFF" stroke-miterlimit="10" x1="81.113" y1="175.156" x2="81.113" y2="162.156"/>
		</g>
	</g>
</g>
<g id="XMLID_5_">
	<g>
		<path fill="#FFFFFF" stroke="#FFFFFF" stroke-miterlimit="10" d="M93.463,174.275c0-6.26-4.704-11.33-10.648-11.33l-0.01,0.91
			c0,2.069-0.08,1.451,0,2.871l-0.09,1.539c0.06,2.147-0.1,2.028-0.1,4.12v1.979c6.004,0,6.385-0.051,7.416-0.08L93.463,174.275z"/>
	</g>
	<g>
		<path fill="#FFFFFF" stroke="#FFFFFF" stroke-miterlimit="10" d="M82.715,168.266c0.06,2.148-0.1,2.029-0.1,4.121v1.979
			c6.004,0,6.385-0.05,7.416-0.08l3.433-0.011c0-6.26-4.704-11.329-10.648-11.329l-0.01,0.909c0,2.07-0.08,1.449,0,2.869
			L82.715,168.266z"/>
	</g>
</g>
<line fill="none" stroke="#FFFFFF" stroke-miterlimit="10" x1="138.367" y1="182.935" x2="156.796" y2="182.935"/>
<g id="XMLID_3_">
	<g>
		<polygon fill="#FFFFFF" stroke="#FFFFFF" stroke-miterlimit="10" points="141.553,180.938 141.553,184.364 138.164,182.651 		"/>
	</g>
	<g>
		<line fill="none" stroke="#FFFFFF" stroke-miterlimit="10" x1="138.164" y1="182.651" x2="141.553" y2="180.938"/>
		<line fill="none" stroke="#FFFFFF" stroke-miterlimit="10" x1="141.553" y1="180.938" x2="141.553" y2="184.364"/>
		<line fill="none" stroke="#FFFFFF" stroke-miterlimit="10" x1="141.553" y1="184.364" x2="138.164" y2="182.651"/>
	</g>
</g>
<line fill="none" stroke="#FFFFFF" stroke-miterlimit="10" x1="176.027" y1="182.935" x2="156.796" y2="182.935"/>
<g id="XMLID_4_">
	<g>
		<polygon fill="#FFFFFF" stroke="#FFFFFF" stroke-miterlimit="10" points="175.724,182.651 172.227,180.938 172.227,184.364 		"/>
	</g>
	<g>
		<line fill="none" stroke="#FFFFFF" stroke-miterlimit="10" x1="175.724" y1="182.651" x2="172.227" y2="180.938"/>
		<line fill="none" stroke="#FFFFFF" stroke-miterlimit="10" x1="172.227" y1="180.938" x2="172.227" y2="184.364"/>
		<line fill="none" stroke="#FFFFFF" stroke-miterlimit="10" x1="172.227" y1="184.364" x2="175.724" y2="182.651"/>
	</g>
</g>
<line fill="none" stroke="#FFFFFF" stroke-miterlimit="10" x1="156.927" y1="201.447" x2="156.946" y2="182.955"/>
<g id="XMLID_8_">
	<g>
		<polygon fill="#FFFFFF" stroke="#FFFFFF" stroke-miterlimit="10" points="158.627,198.195 156.929,201.615 155.236,198.19 		"/>
	</g>
	<g>
		<line fill="none" stroke="#FFFFFF" stroke-miterlimit="10" x1="156.929" y1="201.615" x2="155.236" y2="198.19"/>
		<line fill="none" stroke="#FFFFFF" stroke-miterlimit="10" x1="155.236" y1="198.19" x2="158.627" y2="198.195"/>
		<line fill="none" stroke="#FFFFFF" stroke-miterlimit="10" x1="158.627" y1="198.195" x2="156.929" y2="201.615"/>
	</g>
</g>
<line fill="none" stroke="#FFFFFF" stroke-miterlimit="10" x1="156.966" y1="163.776" x2="156.946" y2="182.955"/>
<g id="XMLID_7_">
	<g>
		<polygon fill="#FFFFFF" stroke="#FFFFFF" stroke-miterlimit="10" points="158.661,167.23 156.969,163.696 155.271,167.228 		"/>
	</g>
	<g>
		<line fill="none" stroke="#FFFFFF" stroke-miterlimit="10" x1="156.969" y1="163.696" x2="155.271" y2="167.228"/>
		<line fill="none" stroke="#FFFFFF" stroke-miterlimit="10" x1="155.271" y1="167.228" x2="158.661" y2="167.23"/>
		<line fill="none" stroke="#FFFFFF" stroke-miterlimit="10" x1="158.661" y1="167.23" x2="156.969" y2="163.696"/>
	</g>
</g>
<path fill="none" stroke="#FFFFFF" stroke-miterlimit="10" d="M153.834,60.373c17.75-0.158,24.691,1.895,24.691,8.844
	c0,2.527-7.441,8.698-21.441,8.686c-6.27-0.005-16.75-0.764-16.75-7.581"/>
<g id="XMLID_9_">
	<g>
		<polygon fill="#FFFFFF" stroke="#FFFFFF" stroke-miterlimit="10" points="142.441,70.315 140.331,67.485 138.21,70.312 		"/>
	</g>
	<g>
		<line fill="none" stroke="#FFFFFF" stroke-miterlimit="10" x1="140.331" y1="67.485" x2="138.21" y2="70.312"/>
		<line fill="none" stroke="#FFFFFF" stroke-miterlimit="10" x1="138.21" y1="70.312" x2="142.441" y2="70.315"/>
		<line fill="none" stroke="#FFFFFF" stroke-miterlimit="10" x1="142.441" y1="70.315" x2="140.331" y2="67.485"/>
	</g>
</g>
<path fill="none" stroke="#FFFFFF" stroke-miterlimit="10" d="M171.059,59.645c0.817,17.732-2.209,24.774-13.201,25.128
	c-4,0.127-14-6.997-14.432-20.99c-0.191-6.267,0.674-16.781,11.458-17.126"/>
<g id="XMLID_10_">
	<g>
		<polygon fill="#FFFFFF" stroke="#FFFFFF" stroke-miterlimit="10" points="154.961,48.769 159.361,46.515 154.83,44.538 		"/>
	</g>
	<g>
		<line fill="none" stroke="#FFFFFF" stroke-miterlimit="10" x1="159.361" y1="46.515" x2="154.83" y2="44.538"/>
		<line fill="none" stroke="#FFFFFF" stroke-miterlimit="10" x1="154.83" y1="44.538" x2="154.961" y2="48.769"/>
		<line fill="none" stroke="#FFFFFF" stroke-miterlimit="10" x1="154.961" y1="48.769" x2="159.361" y2="46.515"/>
	</g>
</g>
<g>
	<g id="XMLID_12_">
		<g>
			<path fill="none" stroke="#FFFFFF" stroke-miterlimit="10" d="M96.865,132.656c0,6.63-5.37,12-12,12h-4c-6.63,0-12-5.37-12-12
				v-16v-2c0-6.63,5.37-12,12-12h4c6.63,0,12,5.37,12,12V132.656z"/>
			<polyline fill="none" stroke="#FFFFFF" stroke-miterlimit="10" points="68.365,116.656 68.865,116.656 96.365,116.656 			"/>
			<line fill="none" stroke="#FFFFFF" stroke-miterlimit="10" x1="82.865" y1="116.156" x2="82.865" y2="103.156"/>
		</g>
	</g>
</g>
<path fill="#FFFFFF" stroke="#FFFFFF" stroke-miterlimit="10" d="M86.367,116.16c0,1.933-1.567,3.5-3.5,3.5l0,0
	c-1.933,0-3.5-1.567-3.5-3.5v-3c0-1.933,1.567-3.5,3.5-3.5l0,0c1.933,0,3.5,1.567,3.5,3.5V116.16z"/>
<rect x="149.604" y="113.763" fill="#FFFFFF" stroke="#FFFFFF" stroke-miterlimit="10" width="16.325" height="18.667"/>
<rect x="136.545" y="101.974" fill="none" stroke="#FFFFFF" stroke-miterlimit="10" width="42.443" height="42.245"/>
<line fill="none" stroke="#FFFFFF" stroke-miterlimit="10" x1="166.167" y1="113.949" x2="172.404" y2="108.356"/>
<g id="XMLID_13_">
	<g>
		<polygon fill="#FFFFFF" stroke="#FFFFFF" stroke-miterlimit="10" points="167.916,114.02 166.111,114.004 166.616,111.919 		"/>
	</g>
	<g>
		<line fill="none" stroke="#FFFFFF" stroke-miterlimit="10" x1="166.111" y1="114.004" x2="166.616" y2="111.919"/>
		<line fill="none" stroke="#FFFFFF" stroke-miterlimit="10" x1="166.616" y1="111.919" x2="167.916" y2="114.02"/>
		<line fill="none" stroke="#FFFFFF" stroke-miterlimit="10" x1="167.916" y1="114.02" x2="166.111" y2="114.004"/>
	</g>
</g>
<line fill="none" stroke="#FFFFFF" stroke-miterlimit="10" x1="178.871" y1="102.554" x2="172.404" y2="108.356"/>
<g id="XMLID_11_">
	<g>
		<polygon fill="#FFFFFF" stroke="#FFFFFF" stroke-miterlimit="10" points="178.361,104.645 178.902,102.533 177.062,102.552 		"/>
	</g>
	<g>
		<line fill="none" stroke="#FFFFFF" stroke-miterlimit="10" x1="178.902" y1="102.533" x2="177.062" y2="102.552"/>
		<line fill="none" stroke="#FFFFFF" stroke-miterlimit="10" x1="177.062" y1="102.552" x2="178.361" y2="104.645"/>
		<line fill="none" stroke="#FFFFFF" stroke-miterlimit="10" x1="178.361" y1="104.645" x2="178.902" y2="102.533"/>
	</g>
</g>
<line fill="none" stroke="#FFFFFF" stroke-miterlimit="10" x1="136.783" y1="143.422" x2="143.021" y2="137.828"/>
<g id="XMLID_15_">
	<g>
		<polygon fill="#FFFFFF" stroke="#FFFFFF" stroke-miterlimit="10" points="137.231,141.393 138.534,143.492 136.729,143.479 		"/>
	</g>
	<g>
		<line fill="none" stroke="#FFFFFF" stroke-miterlimit="10" x1="136.729" y1="143.479" x2="137.231" y2="141.393"/>
		<line fill="none" stroke="#FFFFFF" stroke-miterlimit="10" x1="137.231" y1="141.393" x2="138.534" y2="143.492"/>
		<line fill="none" stroke="#FFFFFF" stroke-miterlimit="10" x1="138.534" y1="143.492" x2="136.729" y2="143.479"/>
	</g>
</g>
<line fill="none" stroke="#FFFFFF" stroke-miterlimit="10" x1="149.486" y1="132.027" x2="143.021" y2="137.828"/>
<g id="XMLID_14_">
	<g>
		<polygon fill="#FFFFFF" stroke="#FFFFFF" stroke-miterlimit="10" points="148.977,134.119 149.52,132.008 147.677,132.027 		"/>
	</g>
	<g>
		<line fill="none" stroke="#FFFFFF" stroke-miterlimit="10" x1="149.52" y1="132.008" x2="147.677" y2="132.027"/>
		<line fill="none" stroke="#FFFFFF" stroke-miterlimit="10" x1="147.677" y1="132.027" x2="148.977" y2="134.119"/>
		<line fill="none" stroke="#FFFFFF" stroke-miterlimit="10" x1="148.977" y1="134.119" x2="149.52" y2="132.008"/>
	</g>
</g>
<line fill="none" stroke="#FFFFFF" stroke-miterlimit="10" x1="165.76" y1="132.053" x2="171.98" y2="137.672"/>
<g id="XMLID_19_">
	<g>
		<polygon fill="#FFFFFF" stroke="#FFFFFF" stroke-miterlimit="10" points="167.507,132 166.192,134.092 165.696,132.004 		"/>
	</g>
	<g>
		<line fill="none" stroke="#FFFFFF" stroke-miterlimit="10" x1="165.696" y1="132.004" x2="167.507" y2="132"/>
		<line fill="none" stroke="#FFFFFF" stroke-miterlimit="10" x1="167.507" y1="132" x2="166.192" y2="134.092"/>
		<line fill="none" stroke="#FFFFFF" stroke-miterlimit="10" x1="166.192" y1="134.092" x2="165.696" y2="132.004"/>
	</g>
</g>
<line fill="none" stroke="#FFFFFF" stroke-miterlimit="10" x1="178.433" y1="143.502" x2="171.98" y2="137.672"/>
<g id="XMLID_18_">
	<g>
		<polygon fill="#FFFFFF" stroke="#FFFFFF" stroke-miterlimit="10" points="177.177,143.939 179.01,143.971 178.474,141.852 		"/>
	</g>
	<g>
		<line fill="none" stroke="#FFFFFF" stroke-miterlimit="10" x1="179.01" y1="143.971" x2="178.474" y2="141.852"/>
		<line fill="none" stroke="#FFFFFF" stroke-miterlimit="10" x1="178.474" y1="141.852" x2="177.177" y2="143.939"/>
		<line fill="none" stroke="#FFFFFF" stroke-miterlimit="10" x1="177.177" y1="143.939" x2="179.01" y2="143.971"/>
	</g>
</g>
<line fill="none" stroke="#FFFFFF" stroke-miterlimit="10" x1="137.144" y1="102.67" x2="143.451" y2="108.149"/>
<g id="XMLID_17_">
	<g>
		<polygon fill="#FFFFFF" stroke="#FFFFFF" stroke-miterlimit="10" points="138.577,102.473 137.267,104.571 136.767,102.479 		"/>
	</g>
	<g>
		<line fill="none" stroke="#FFFFFF" stroke-miterlimit="10" x1="136.767" y1="102.479" x2="138.577" y2="102.473"/>
		<line fill="none" stroke="#FFFFFF" stroke-miterlimit="10" x1="138.577" y1="102.473" x2="137.267" y2="104.571"/>
		<line fill="none" stroke="#FFFFFF" stroke-miterlimit="10" x1="137.267" y1="104.571" x2="136.767" y2="102.479"/>
	</g>
</g>
<line fill="none" stroke="#FFFFFF" stroke-miterlimit="10" x1="149.991" y1="113.831" x2="143.451" y2="108.149"/>
<g id="XMLID_16_">
	<g>
		<polygon fill="#FFFFFF" stroke="#FFFFFF" stroke-miterlimit="10" points="149.928,114.009 149.392,111.887 148.092,113.979 		"/>
	</g>
	<g>
		<line fill="none" stroke="#FFFFFF" stroke-miterlimit="10" x1="149.928" y1="114.009" x2="149.392" y2="111.887"/>
		<line fill="none" stroke="#FFFFFF" stroke-miterlimit="10" x1="149.392" y1="111.887" x2="148.092" y2="113.979"/>
		<line fill="none" stroke="#FFFFFF" stroke-miterlimit="10" x1="148.092" y1="113.979" x2="149.928" y2="114.009"/>
	</g>
</g>
</svg>
